<svg xmlns="http://www.w3.org/2000/svg" 
     width="31.999" 
     height="33.492" 
     viewBox="0 0 31.999 33.492">
  <path d="M5.937 11.57a5.937 5.937 0 0 0-5.937 5.936 5.937 5.937 0 0 0 5.937 5.937 5.937 5.937 0 0 0 5.936-5.936 5.936 5.936 0 0 0-5.937-5.937Zm0 8.5a2.568 2.568 0 0 1-2.568-2.568 2.568 2.568 0 0 1 2.568-2.568 2.568 2.568 0 0 1 2.568 2.568 2.568 2.568 0 0 1-.75 1.819 2.568 2.568 0 0 1-1.818.754Z" 
        fill="#cccccc"/>
  <path d="M9.171 17.259l-1.578-2.982 15.94-8.5 1.578 2.982Z" 
        fill="#cccccc"/>
  <path d="M6.932 20.327l1.407-3.067 16.729 7.678-1.407 3.067Z" 
        fill="#cccccc"/>
  <path d="M26.062 0a5.936 5.936 0 0 0-5.936 5.936 5.937 5.937 0 0 0 5.936 5.937 5.937 5.937 0 0 0 5.937-5.937A5.937 5.937 0 0 0 26.062 0Zm1.816 7.753a2.568 2.568 0 0 1-3.632 0 2.568 2.568 0 0 1 0-3.632 2.568 2.568 0 0 1 3.632 0 2.568 2.568 0 0 1 0 3.632Z" 
        fill="#cccccc"/>
  <path d="M26.062 21.619a5.936 5.936 0 0 0-5.936 5.936 5.937 5.937 0 0 0 5.936 5.937 5.937 5.937 0 0 0 5.937-5.937 5.937 5.937 0 0 0-5.937-5.936Zm0 8.5a2.568 2.568 0 0 1-2.568-2.568 2.568 2.568 0 0 1 2.568-2.568 2.568 2.568 0 0 1 2.568 2.568 2.568 2.568 0 0 1-.749 1.821 2.568 2.568 0 0 1-1.819.755Z" 
        fill="#cccccc"/>
</svg>
