<svg xmlns="http://www.w3.org/2000/svg" 
     width="35.926" 
     height="35.668" 
     viewBox="0 0 35.926 35.668">
  <path d="M2.741 1.512l4.023 1.364a0.972 0.972 0 0 0 0.9-0.142l3.4-2.541a0.974 0.974 0 0 1 1.024-0.087 0.974 0.974 0 0 1 0.532 0.88l-0.054 4.248a0.975 0.975 0 0 0 0.411 0.808l3.469 2.453a0.974 0.974 0 0 1 0.4 0.947 0.974 0.974 0 0 1-0.672 0.778l-4.057 1.261a0.972 0.972 0 0 0-0.641 0.641l-1.261 4.056a0.974 0.974 0 0 1-0.777 0.673 0.974 0.974 0 0 1-0.948-0.4L6.041 12.987a0.97 0.97 0 0 0-0.807-0.411l-4.248 0.054a0.974 0.974 0 0 1-0.88-0.532 0.974 0.974 0 0 1 0.087-1.024l2.541-3.405a0.975 0.975 0 0 0 0.141-0.9L1.508 2.747a0.974 0.974 0 0 1 0.233-1 0.974 0.974 0 0 1 1-0.235Z" 
        fill="#60a69e" />
  <path d="M24.286 5.212l1.267 0.429a0.306 0.306 0 0 0 0.282-0.044l1.072-0.8a0.307 0.307 0 0 1 0.322-0.027 0.307 0.307 0 0 1 0.168 0.276L27.379 6.387a0.308 0.308 0 0 0 0.13 0.254l1.092 0.773a0.306 0.306 0 0 1 0.126 0.3 0.306 0.306 0 0 1-0.212 0.245l-1.277 0.4a0.3 0.3 0 0 0-0.2 0.2l-0.4 1.277a0.307 0.307 0 0 1-0.245 0.211 0.307 0.307 0 0 1-0.3-0.125l-0.773-1.092a0.3 0.3 0 0 0-0.254-0.13l-1.337 0.017a0.306 0.306 0 0 1-0.278-0.167 0.306 0.306 0 0 1 0.028-0.323l0.8-1.072a0.309 0.309 0 0 0 0.045-0.282l-0.43-1.266a0.306 0.306 0 0 1 0.07-0.32 0.306 0.306 0 0 1 0.32-0.073Z" 
        fill="#60a69e" />
  <path d="M13.612 26.917l1.661 0.563a0.4 0.4 0 0 0 0.369-0.058l1.406-1.049a0.4 0.4 0 0 1 0.424-0.038 0.4 0.4 0 0 1 0.218 0.365l-0.023 1.754a0.4 0.4 0 0 0 0.17 0.333l1.432 1.012a0.4 0.4 0 0 1 0.167 0.392 0.4 0.4 0 0 1-0.28 0.32l-1.674 0.521a0.4 0.4 0 0 0-0.265 0.264l-0.52 1.674a0.4 0.4 0 0 1-0.32 0.28 0.4 0.4 0 0 1-0.392-0.167l-1.013-1.431a0.4 0.4 0 0 0-0.333-0.17l-1.753 0.022a0.4 0.4 0 0 1-0.365-0.218 0.4 0.4 0 0 1 0.038-0.424l1.048-1.405a0.4 0.4 0 0 0 0.059-0.37l-0.563-1.66a0.4 0.4 0 0 1 0.094-0.415 0.4 0.4 0 0 1 0.415-0.1Z" 
        fill="#60a69e" />
  <path d="M2.551 19.116l0.477 0.886a0.23 0.23 0 0 0 0.178 0.119l1 0.109a0.231 0.231 0 0 1 0.192 0.15 0.231 0.231 0 0 1-0.05 0.239l-0.7 0.727a0.232 0.232 0 0 0-0.059 0.206l0.206 0.984a0.231 0.231 0 0 1-0.084 0.229 0.231 0.231 0 0 1-0.242 0.026l-0.906-0.436a0.229 0.229 0 0 0-0.214 0.008l-0.873 0.5a0.231 0.231 0 0 1-0.243-0.009 0.231 0.231 0 0 1-0.1-0.222l0.135-1a0.23 0.23 0 0 0-0.074-0.2l-0.744-0.675a0.231 0.231 0 0 1-0.069-0.235 0.231 0.231 0 0 1 0.182-0.165l0.99-0.18a0.232 0.232 0 0 0 0.169-0.132l0.412-0.917a0.231 0.231 0 0 1 0.2-0.138 0.231 0.231 0 0 1 0.212 0.126Z" 
        fill="#60a69e" />
  <path d="M30.801 17.244l0.963 0.289a0.232 0.232 0 0 0 0.211-0.041l0.783-0.63a0.231 0.231 0 0 1 0.242-0.029 0.231 0.231 0 0 1 0.133 0.2l0.023 1a0.23 0.23 0 0 0 0.1 0.187l0.841 0.551a0.23 0.23 0 0 1 0.1 0.221 0.23 0.23 0 0 1-0.153 0.189l-0.948 0.333a0.231 0.231 0 0 0-0.147 0.157l-0.264 0.97a0.23 0.23 0 0 1-0.176 0.161 0.23 0.23 0 0 1-0.224-0.082l-0.61-0.8a0.229 0.229 0 0 0-0.194-0.09l-1 0.049a0.231 0.231 0 0 1-0.212-0.119 0.231 0.231 0 0 1 0.012-0.243l0.572-0.826a0.231 0.231 0 0 0 0.026-0.213l-0.356-0.94a0.23 0.23 0 0 1 0.045-0.235 0.23 0.23 0 0 1 0.22-0.06Z" 
        fill="#60a69e" />
  <path d="M35.41 32.676L14.547 11.964l-1.318 0.41a1.3 1.3 0 0 0-0.859 0.859l-0.357 1.148L32.941 35.16a1.745 1.745 0 0 0 1.234 0.508 1.752 1.752 0 0 0 1.242-0.516 1.751 1.751 0 0 0-0.007-2.476Z" 
        fill="#60a69e" />
</svg>
