<svg xmlns="http://www.w3.org/2000/svg" 
     width="124.299" 
     height="7.116" 
     viewBox="0 0 124.299 7.116">
  <!-- Main Path -->
  <path d="M118.085 0.413c-4.471-0.209-65.415 0.326-69.889 0.222-5.3-0.123-10.6-0.137-15.906-0.162a29.693 29.693 0 0 0-8.377 0.968c-0.072 1.1-0.143 2.178-0.22 3.365a45.984 45.984 0 0 0 4.88 0.561c2.336 0.036 4.676-0.148 7.013-0.266 2.192-0.111 4.385-0.224 6.573-0.4 3.189-0.25 55.727-1.427 58.911-1.741 3.815-0.377 14.75-0.661 18.559-1.093 1.559-0.177 3.107-0.445 4.66-0.672l0.01-0.149a5.752 5.752 0 0 0-0.983-0.256c-1.453-0.214-3.197-0.366-4.943-0.449Z" 
        fill="#f0d01d"/>
  <!-- Secondary Path -->
  <path d="M18.841 0.357c-2.923-0.751-5.76-0.187-8.61 0.485a42.153 42.153 0 0 1-5.514 0.993 41.283 41.283 0 0 1-4.717-0.048c0.549 0.5 1.082 1.035 1.657 1.517a15.491 15.491 0 0 0 8.451 3.734 20.164 20.164 0 0 0 9.673-1.535 1.876 1.876 0 0 0 1.252-1.143c0.394-1.462-0.44-2.453-2.645-3.02Z" 
        fill="#f0d01d"/>
</svg>
