<svg xmlns="http://www.w3.org/2000/svg" 
     width="30" 
     height="30" 
     viewBox="0 0 65 65">
  <path 
    d="M30.9 37.1c-4.2-4.1-7.9-7.7-10-16L35.6 21.1 35.6 14.9 21 14.9v-8.2h-6.3v8.3L0 15v6.2h15c0 0-0.1 1.2-0.3 2.1-2.1 8.2-4.6 13.4-14.7 18.5l2.1 6.2C11.7 42.9 16.7 36.5 18.9 29.4c2.1 5.4 5.7 9.8 9.8 13.8l2.2-6.1z" 
    fill="#60a69e" />
  <path 
    d="M50.3 17L41.9 17 27.2 58.3 33.5 58.3 37.7 45.9 54.5 45.9l4.2 12.4h6.3L50.3 17zM39.8 39.7L46.1 23.2 52.4 39.8 39.8 39.7 39.8 39.7z" 
    fill="#60a69e" />
</svg>
