<?xml version="1.0"?>
<svg xmlns="http://www.w3.org/2000/svg" xmlns:android="http://schemas.android.com/apk/res/android" height="164.333dp" width="596.4297dp" viewportWidth="596.433" viewportHeight="164.333">
	<path fill="#fff" d="M214.892,106.338a27.887,27.887 0,0 0,2.49 3.753,25.88 25.88,0 0,0 8.944,7.558 35.223,35.223 0,0 0,17.379 4.308c0.392,0.011 0.783,0.021 1.177,0.021a35.162,35.162 0,0 0,9.269 -1.224,26.068 26.068,0 0,0 8.043,-3.672 18.655,18.655 0,0 0,5.564 -6.055c0.943,0.675 1.89,1.325 2.839,1.935 5.044,3.245 10.368,6.035 16.627,5.914 4.763,-0.091 8.633,-2.89 9.632,-6.74a6.821,6.821 0,0 0,-3.11 -7.731,6.521 6.521,0 0,0 -7.742,0.726 6.619,6.619 0,0 0,-1.554 8.159c0.292,0.6 0.651,1.168 0.978,1.751l-0.792,0.781a59.163,59.163 0,0 1,-15.49 -7.876,18.675 18.675,0 0,0 0.823,-3.86l0.132,-0.02s4.04,-23.044 -16.3,-27.546a7.88,7.88 0,0 0,-2.4 -0.36A18.191,18.191 0,0 0,245.162 77.216c-0.457,0.165 -0.9,0.353 -1.326,0.555 -1.928,-3.322 -3.793,-6.627 -4.254,-7.749 0,0 -4.334,0.284 -1.925,5.3a44.243,44.243 0,0 0,2.825 4.657c-0.137,0.121 -0.283,0.229 -0.416,0.355a14.816,14.816 0,0 0,-3.437 4.983,17.049 17.049,0 0,0 -1.259,6.79 20.007,20.007 0,0 0,0.457 4.236,12.063 12.063,0 0,0 1.49,3.8 9.646,9.646 0,0 0,2.576 2.8,6.36 6.36,0 0,0 3.838,1.122 6.14,6.14 0,0 0,4.638 -1.994,6.956 6.956,0 0,0 1.89,-4.983 3.591,3.591 0,0 0,-0.564 -1.993l-1.127,-1.744a11.968,11.968 0,0 1,-0.75 1.557,1.519 1.519,0 0,1 -1.324,0.934 2.037,2.037 0,0 1,-1.9 -1.183,4.873 4.873,0 0,1 -0.633,-2.3 9.657,9.657 0,0 1,1.493 -5.3c1.226,1.688 2.435,3.323 3.512,4.766q1.841,2.638 3.822,5.057l0.035,0.046 0,0a81.284,81.284 0,0 0,6.08 6.653,22.42 22.42,0 0,1 -0.9,2.358 13.6,13.6 0,0 1,-4.08 3.4,19.066 19.066,0 0,1 -5.3,1.972 24.891,24.891 0,0 1,-5.168 0.612,25.655 25.655,0 0,1 -7.752,-1.156 18.754,18.754 0,0 1,-6.392 -3.4,16.531 16.531,0 0,1 -4.352,-5.576 17.256,17.256 0,0 1,-1.632 -7.684,25.217 25.217,0 0,1 5.135,-17.331c4.833,-4.851 10.135,-9.235 15.267,-13.784a37.151,37.151 0,0 0,10.049 -13.327h0a28.811,28.811 0,0 0,1.311 -3.878,23.8 23.8,0 0,0 0.674,-8.315l0,-0.015 -0.006,-0.018a25.143,25.143 0,0 0,-3.325 -10.149l-0.009,-0.029 -0.01,0c-0.307,-0.531 -0.626,-1.058 -0.971,-1.577l-0.042,0.1c-9.024,-13.994 -22.277,-4.632 -22.277,-4.632 -9.884,10.144 -11.178,24.255 -3.941,38.663v0.577c3.124,0 5.66,-4.7 4.85,-7.471h0s-3.521,-8.853 0.046,-15.872a16.127,16.127 0,0 1,5.972 -6.286,12.505 12.505,0 0,1 11.738,2.365c4.792,4.193 2.9,12.025 -0.585,15.544 -0.393,0.344 -0.8,0.673 -1.2,1h0c-0.492,0.39 -0.991,0.768 -1.5,1.125 -4.7,3.307 -9.807,6.045 -14.516,9.346 -10.7,7.5 -17.759,17.338 -17.919,30.9 -0.007,0.63 0,1.255 0.017,1.874 -0.03,0.533 -0.05,1.068 -0.05,1.6A24,24 0,0 0,214.892 106.338ZM248.733,86.077s-0.306,-0.511 -0.8,-1.347a6.3,6.3 0,0 1,2.787 -0.6,5.2 5.2,0 0,1 3.322,1 9.149,9.149 0,0 1,2.176 2.554q0.915,1.56 1.718,3.3a15.012,15.012 0,0 0,0.912 1.692,15.285 15.285,0 0,1 0.94,6.064c-0.035,0.266 -0.07,0.531 -0.087,0.8 -0.006,0.1 -0.011,0.183 -0.016,0.274A95.081,95.081 0,0 1,248.733 86.077Z"/>
	<path fill="#fff" d="M469.1,143.458c-13.887,-0.648 -203.19,1.012 -217.086,0.689 -16.464,-0.382 -32.936,-0.425 -49.406,-0.5 -8.886,-0.042 -17.721,0.608 -26.019,3.006 -0.223,3.406 -0.443,6.766 -0.684,10.452 4.881,0.6 10.012,1.663 15.159,1.743 7.256,0.112 14.525,-0.46 21.784,-0.826 6.809,-0.344 13.62,-0.7 20.416,-1.23 9.907,-0.776 173.1,-4.432 182.986,-5.409 11.851,-1.171 45.818,-2.052 57.65,-3.394 4.842,-0.549 9.651,-1.382 14.476,-2.087l0.03,-0.464a17.868,17.868 0,0 0,-3.052 -0.8C479.94,144.188 474.525,143.716 469.1,143.458Z"/>
	<path fill="#fff" d="M160.828,143.281c-9.078,-2.334 -17.889,-0.582 -26.743,1.507a130.879,130.879 0,0 1,-17.126 3.085c-4.771,0.471 -9.641,-0.06 -14.654,-0.151 1.706,1.568 3.363,3.215 5.147,4.712 7.624,6.4 16.246,10.532 26.251,11.6 10.458,1.114 20.379,-0.943 30.047,-4.767 1.794,-0.709 3.21,-1.589 3.889,-3.55C170.268,148.122 167.678,145.043 160.828,143.281Z"/>
	<path fill="#fff" d="M106.385,93.692a20.158,20.158 0,0 0,-2.569 -9.822,13.3 13.3,0 0,0 -1.737,2.342 2.719,2.719 0,0 1,-2.191 1.587,2.46 2.46,0 0,1 -2.041,-1.133 10.043,10.043 0,0 1,-1.36 -2.645,16.2 16.2,0 0,1 -0.755,-3.1 18.773,18.773 0,0 1,-0.227 -2.493q0,-9.52 -0.377,-19.04t-0.681,-19.193a72.834,72.834 0,0 0,-1.737 -14.809,34.577 34.577,0 0,0 -5.139,-12.089 24.528,24.528 0,0 0,-9.52 -8.085q-5.972,-2.948 -14.885,-2.947a29.635,29.635 0,0 0,-9.142 1.436,24.55 24.55,0 0,0 -7.934,4.23 21.564,21.564 0,0 0,-5.591 6.8,19.263 19.263,0 0,0 -2.116,9.143 26.759,26.759 0,0 0,0.982 7.178,19.42 19.42,0 0,0 3.023,6.346 15.09,15.09 0,0 0,5.137 4.458,14.918 14.918,0 0,0 7.179,1.662 20.031,20.031 0,0 0,5.138 -0.679,13.419 13.419,0 0,0 4.609,-2.192 12.635,12.635 0,0 0,3.324 -3.626,9.732 9.732,0 0,0 1.285,-5.138q0,-4.08 -2.116,-6.2a12.239,12.239 0,0 0,-6.045 -3.022,10.4 10.4,0 0,0 -0.6,1.587 12.414,12.414 0,0 1,-0.755 1.888,5.777 5.777,0 0,1 -1.058,1.511 2.049,2.049 0,0 1,-1.512 0.6,2.5 2.5,0 0,1 -2.493,-1.889 9.87,9.87 0,0 1,-0.68 -3.249q0,-4.533 2.8,-6.649a11.312,11.312 0,0 1,7.027 -2.116q5.589,0 8.915,2.57a15.849,15.849 0,0 1,4.988 6.573,30.273 30.273,0 0,1 2.115,8.765q0.453,4.759 0.453,8.991 0,3.931 -0.151,7.783t-0.151,7.782a11.424,11.424 0,0 0,0.3 2.645,10.906 10.906,0 0,1 0.3,2.493 6.3,6.3 0,0 1,-0.681 3.325,3.048 3.048,0 0,1 -1.889,1.359 9.495,9.495 0,0 1,-2.8 0.227q-1.587,-0.073 -3.4,-0.075 -0.758,0 -1.965,-0.075a19.72,19.72 0,0 1,-2.418 -0.3,5.626 5.626,0 0,1 -2.115,-0.831 2.031,2.031 0,0 1,-0.907 -1.814,42.456 42.456,0 0,1 0.227,-4.533 29.132,29.132 0,0 0,0.151 -4.156,9.921 9.921,0 0,0 -3.854,-7.631 10.989,10.989 0,0 0,-1.738 -1.209,4.205 4.205,0 0,0 -2.04,-0.453q-2.117,0 -3.1,2.568a26.5,26.5 0,0 0,-1.436 5.894,59.528 59.528,0 0,0 -0.529,6.724 31.853,31.853 0,0 1,-0.378 4.912,18.307 18.307,0 0,1 -2.266,0.151h-2.267q-2.721,0 -5.667,0.076a20.6,20.6 0,0 0,-5.44 0.831,8.834 8.834,0 0,0 -4.156,2.645q-1.665,1.89 -1.662,5.667a5.72,5.72 0,0 0,2.342 4.608,7.71 7.71,0 0,0 4.911,1.89 2.6,2.6 0,0 0,1.889 -0.832q0.829,-0.828 1.663,-1.738a12.6,12.6 0,0 1,1.737 -1.586,2.652 2.652,0 0,1 2.267,-0.378l0.6,-0.152a2.625,2.625 0,0 1,1.814 0.681,2.237 2.237,0 0,1 0.756,1.737 13.77,13.77 0,0 1,-2.494 7.254,34.763 34.763,0 0,1 -6.2,7.254 41.487,41.487 0,0 1,-7.858 5.591,15.947 15.947,0 0,1 -7.48,2.266 7.833,7.833 0,0 1,-3.1 -0.453,16.8 16.8,0 0,1 -2.644,-1.662l-0.454,-1.209a2.887,2.887 0,0 1,1.285 -2.342c0.854,-0.654 1.587,-1.233 2.191,-1.738a13.749,13.749 0,0 0,-10.125 -4.08,10.831 10.831,0 0,0 -7.783,3.324 10.47,10.47 0,0 0,-3.4 7.707,12.084 12.084,0 0,0 1.888,6.8 15.368,15.368 0,0 0,4.836 4.685,23.167 23.167,0 0,0 6.574,2.719 28.618,28.618 0,0 0,6.951 0.907,32.928 32.928,0 0,0 14.054,-3.022 41.337,41.337 0,0 0,11.636 -8.085,51.05 51.05,0 0,0 8.765,-11.56 57.76,57.76 0,0 0,5.44 -13.3q0.3,-1.056 0.68,-2.192a2.094,2.094 0,0 1,1.587 -1.435,2.768 2.768,0 0,1 1.36,-0.227 10.7,10.7 0,0 0,1.36 0.075q3.927,0 7.631,0.152t7.632,0.3a50.159,50.159 0,0 1,1.586 8.386,52.55 52.55,0 0,0 1.738,8.916 17.476,17.476 0,0 0,3.929 7.1q2.721,2.948 8.16,2.947a10.127,10.127 0,0 0,7.707 -3.022A10.945,10.945 0,0 0,106.385 93.692Z"/>
	<path fill="#fff" d="M110.615,59.016a3.235,3.235 0,0 1,2.267 -0.831,3.8 3.8,0 0,1 3.022,1.209 7.159,7.159 0,0 1,1.512 2.946,14.327 14.327,0 0,1 0.453,3.627v3.4a82.9,82.9 0,0 1,-0.68 10.578,82.787 82.787,0 0,0 -0.68,10.578 39.177,39.177 0,0 0,0.529 6.875,10.138 10.138,0 0,0 2.115,4.836 9.305,9.305 0,0 0,4.308 2.8,22.945 22.945,0 0,0 7.1,0.907 27.331,27.331 0,0 0,5.364 -0.529,14.663 14.663,0 0,0 4.761,-1.813 9.776,9.776 0,0 0,3.4 -3.476,10.463 10.463,0 0,0 1.284,-5.365 19.542,19.542 0,0 0,-1.511 -7.253,8.635 8.635,0 0,1 -3.324,4.729 8.947,8.947 0,0 1,-5.441 1.919,4.449 4.449,0 0,1 -3.929,-1.73 10.544,10.544 0,0 1,-1.662 -4.212,21.438 21.438,0 0,1 -0.3,-5.114q0.148,-2.636 0.151,-4.44 0,-3.011 -0.151,-6.394a20.668,20.668 0,0 1,0.6 -6.245,9.9 9.9,0 0,1 2.72,-4.739q1.963,-1.881 6.347,-1.881l2.116,0.15a26.171,26.171 0,0 0,-2.569 3.4,7.3 7.3,0 0,0 -1.209,4.005 4.291,4.291 0,0 0,0.755 2.569,6.213 6.213,0 0,0 1.89,1.738 9.97,9.97 0,0 0,2.493 1.057,17.645 17.645,0 0,0 2.569,0.53 8.582,8.582 0,0 1,0.755 -4.988,22.879 22.879,0 0,1 2.418,-3.626 33.224,33.224 0,0 0,2.569 -3.627,9.376 9.376,0 0,0 1.209,-4.987 12.35,12.35 0,0 0,-2.418 -7.707q-2.418,-3.172 -7.253,-3.174a13.832,13.832 0,0 0,-7.783 1.965,13.556 13.556,0 0,0 -4.76,6.5 17.5,17.5 0,0 0,-3.627 -6.346q-2.266,-2.417 -6.649,-2.418a10,10 0,0 0,-8.009 3.55,12.529 12.529,0 0,0 -3.022,8.388 15.385,15.385 0,0 0,0.6 4.533A12.085,12.085 0,0 1,110.615 59.016Z"/>
	<path fill="#fff" d="M183.603,94.901a16.379,16.379 0,0 0,-0.755 -4.533,8.624 8.624,0 0,1 -1.361,1.36 2.809,2.809 0,0 1,-1.813 0.605,3.649 3.649,0 0,1 -3.249,-1.738 12.384,12.384 0,0 1,-1.662 -4.08,29.728 29.728,0 0,1 -0.68,-4.76q-0.152,-2.417 -0.151,-3.779a79.764,79.764 0,0 1,0.756 -11.031q0.755,-5.441 1.057,-11.032h3.023a7.079,7.079 0,0 0,2.644 -0.453,4.407 4.407,0 0,0 1.889,-1.436 5.092,5.092 0,0 0,0.756 -3.1q0,-3.777 -1.209,-4.836t-4.836,-1.058h-1.965a64.849,64.849 0,0 1,0.756 -9.9,64.084 64.084,0 0,0 0.756,-9.747 2.626,2.626 0,0 0,-0.68 -1.814,2.24 2.24,0 0,0 -1.738,-0.755 8.867,8.867 0,0 0,-3.929 1.058,16.869 16.869,0 0,0 -3.854,2.644 17.373,17.373 0,0 0,-2.947 3.476,6.849 6.849,0 0,0 -1.208,3.7L163.203,39.516a54.217,54.217 0,0 1,-0.3 5.667,13.038 13.038,0 0,1 -3.853,0.3 10.537,10.537 0,0 0,-2.872 0.076,2.45 2.45,0 0,0 -1.737,1.436 9.848,9.848 0,0 0,-0.6 4.08,32.487 32.487,0 0,0 0.151,3.476q0.15,1.359 3.023,1.359h5.742q0,8.16 -0.529,16.019t-0.529,16.018a57.323,57.323 0,0 0,0.3 5.742,20.613 20.613,0 0,0 1.36,5.667 10.981,10.981 0,0 0,3.1 4.383,8.466 8.466,0 0,0 5.666,1.737 12.238,12.238 0,0 0,8.161 -2.8A9.618,9.618 0,0 0,183.603 94.901Z"/>
	<path fill="#fff" d="M290.124,26.597a16.913,16.913 0,0 0,6.12 -1.133,16.5 16.5,0 0,1 5.97,-1.134 3.816,3.816 0,0 1,2.418 0.831,7.964 7.964,0 0,1 1.813,2.04 15.6,15.6 0,0 1,1.285 2.569q0.526,1.361 0.831,2.418a106.413,106.413 0,0 1,4.08 16.472q1.359,8.312 3.475,16.472 0.907,3.932 2.192,10.125t2.8,12.693q1.508,6.5 3.021,12.24a43.848,43.848 0,0 0,3.174 8.916,3.366 3.366,0 0,0 2.115,2.04 11.355,11.355 0,0 0,3.023 0.378q0.754,0 1.36,-1.133c0.4,-0.755 0.7,-1.336 0.907,-1.738q1.962,-4.533 3.929,-10.729t4.08,-12.694q2.113,-6.5 4.382,-12.316a44.231,44.231 0,0 1,4.836 -9.444q0.6,1.965 1.662,5.968t2.267,8.992q1.208,4.988 2.494,10.426t2.568,10.05q1.282,4.611 2.418,7.934a12.762,12.762 0,0 0,1.89 4.08c0.1,0 0.15,0.023 0.15,0.075s0.05,0.076 0.151,0.076l1.512,0.151a4.07,4.07 0,0 0,3.626 -1.813,17.918 17.918,0 0,0 2.268,-5.139q1.055,-3.474 1.812,-5.59 1.51,-4.535 4.081,-11.032t5.516,-13.827q2.946,-7.329 5.893,-15.187t5.365,-15.188q2.415,-7.328 3.928,-13.524a45.485,45.485 0,0 0,1.512 -10.428,21.15 21.15,0 0,0 -1.36,-7.631 18.683,18.683 0,0 0,-3.854 -6.2,18.153 18.153,0 0,0 -5.893,-4.155 18.623,18.623 0,0 0,-7.631 -1.512,16.577 16.577,0 0,0 -5.516,0.982 17.132,17.132 0,0 0,-5.062 2.8,15.167 15.167,0 0,0 -3.7,4.307 10.848,10.848 0,0 0,-1.435 5.515,10.228 10.228,0 0,0 2.8,7.33 9.455,9.455 0,0 0,7.178 2.947c0.6,0 1.183,-0.024 1.738,-0.076s1.134,-0.125 1.738,-0.227q-0.3,-0.906 -0.756,-1.964a5.331,5.331 0,0 1,-0.453 -2.116,1.69 1.69,0 0,1 0.906,-1.662 4.335,4.335 0,0 1,1.965 -0.453,5.93 5.93,0 0,1 3.551,1.284 3.9,3.9 0,0 1,1.738 3.249,30.756 30.756,0 0,1 -1.738,8.387q-1.738,5.517 -4.005,11.56t-4.533,11.712q-2.266,5.667 -3.476,8.84 -0.758,2.118 -1.51,4.308a4.984,4.984 0,0 1,-3.023 3.1,52.316 52.316,0 0,1 -2.418,-8.009q-1.211,-5.135 -2.493,-11.183t-2.569,-12.392q-1.287,-6.345 -2.645,-11.937a93.692,93.692 0,0 0,-2.871 -9.747,16.269 16.269,0 0,0 -3.022,-5.667 9.78,9.78 0,0 0,-4.61 -2.72,22.785 22.785,0 0,0 -5.364,-0.6 9.555,9.555 0,0 0,-7.1 2.924,9.785 9.785,0 0,0 -2.871,7.124 15.054,15.054 0,0 0,0.3 2.55,19.952 19.952,0 0,0 0.907,3.3 12.316,12.316 0,0 0,1.511 2.924,2.5 2.5,0 0,0 1.965,1.274h0.906l1.965,-3.173a3.912,3.912 0,0 1,2.267 0.983,5.324 5.324,0 0,1 1.36,1.964 9.534,9.534 0,0 1,0.6 2.494,23.75 23.75,0 0,1 0.152,2.568 47.726,47.726 0,0 1,-1.209 10.5q-1.212,5.366 -2.947,10.653t-3.627,10.5q-1.891,5.214 -3.4,10.2a96.285,96.285 0,0 1,-4.005 -14.507q-1.438,-7.4 -2.8,-14.885t-3.022,-14.81a94.225,94.225 0,0 0,-4.533 -14.431,11.1 11.1,0 0,0 -5.138,-5.743 15.8,15.8 0,0 0,-7.405 -1.813,19.366 19.366,0 0,0 -6.876,1.284 19.285,19.285 0,0 1,-6.875 1.284,4.1 4.1,0 0,1 -2.116,-0.528 2,2 0,0 1,-0.907 -1.89,5.286 5.286,0 0,1 0.151,-1.51 13.275,13.275 0,0 0,-6.2 3.017q-2.265,2.11 -2.266,6.45a12.317,12.317 0,0 0,2.266 6.961A7.225,7.225 0,0 0,290.124 26.597Z"/>
	<path fill="#fff" d="M403.762,85.835a26.948,26.948 0,0 0,2.332 7.4,25.2 25.2,0 0,0 4.444,6.5 21.982,21.982 0,0 0,6.172 4.61,16.588 16.588,0 0,0 7.53,1.737A18.681,18.681 0,0 0,434.862 103.216a21.475,21.475 0,0 0,6.852 -7.4,32.812 32.812,0 0,0 3.612,-10.125 58.548,58.548 0,0 0,1.056 -10.88,64.994 64.994,0 0,0 -0.9,-10.8 30.666,30.666 0,0 0,-3.313 -9.747,19.754 19.754,0 0,0 -6.55,-7.1 19,19 0,0 0,-10.616 -2.719,17.84 17.84,0 0,0 -10.016,2.719 22.4,22.4 0,0 0,-6.777 6.952,30.861 30.861,0 0,0 -3.839,9.445 45.284,45.284 0,0 0,-1.2 10.2q0,3.025 0.075,6.045A48.68,48.68 0,0 0,403.762 85.835ZM416.908,70.496a38.448,38.448 0,0 1,1.209 -6.725,18.751 18.751,0 0,1 2.57,-5.742 5.1,5.1 0,0 1,4.381 -2.418,5.443 5.443,0 0,1 4.458,2.192 15.445,15.445 0,0 1,2.645 5.213,36.742 36.742,0 0,1 1.285,6.2 45.9,45.9 0,0 1,0.378 5.138,50.55 50.55,0 0,1 -0.378,5.44 37.331,37.331 0,0 1,-1.36 6.573,18.163 18.163,0 0,1 -2.72,5.592 5.326,5.326 0,0 1,-4.458 2.342,5.091 5.091,0 0,1 -4.231,-2.192 16.312,16.312 0,0 1,-2.57 -5.137,30.621 30.621,0 0,1 -1.209,-6.12q-0.3,-3.174 -0.3,-4.987Q416.608,73.899 416.91,70.496Z"/>
	<path fill="#fff" d="M482.192,44.73a13.833,13.833 0,0 0,-7.782 1.965,13.556 13.556,0 0,0 -4.76,6.5 17.546,17.546 0,0 0,-3.626 -6.346q-2.267,-2.417 -6.65,-2.418a10,10 0,0 0,-8.009 3.55,12.529 12.529,0 0,0 -3.022,8.388 15.385,15.385 0,0 0,0.6 4.533,12.085 12.085,0 0,1 1.662,-1.888 3.235,3.235 0,0 1,2.267 -0.831,3.806 3.806,0 0,1 3.023,1.209 7.147,7.147 0,0 1,1.511 2.946,14.327 14.327,0 0,1 0.453,3.627v3.4a82.718,82.718 0,0 1,-0.68 10.578,82.966 82.966,0 0,0 -0.68,10.578 39.176,39.176 0,0 0,0.529 6.875,10.13 10.13,0 0,0 2.116,4.836 9.293,9.293 0,0 0,4.306 2.8,22.956 22.956,0 0,0 7.1,0.907 27.356,27.356 0,0 0,5.365 -0.529,14.657 14.657,0 0,0 4.76,-1.813 9.768,9.768 0,0 0,3.4 -3.476,10.454 10.454,0 0,0 1.284,-5.365 19.559,19.559 0,0 0,-1.51 -7.253,8.639 8.639,0 0,1 -3.326,4.729 8.942,8.942 0,0 1,-5.439 1.919,4.451 4.451,0 0,1 -3.93,-1.73 10.559,10.559 0,0 1,-1.662 -4.212,21.489 21.489,0 0,1 -0.3,-5.114q0.148,-2.636 0.151,-4.44 0,-3.011 -0.151,-6.394a20.667,20.667 0,0 1,0.6 -6.245,9.888 9.888,0 0,1 2.72,-4.739q1.961,-1.881 6.346,-1.881l2.116,0.15a26.171,26.171 0,0 0,-2.569 3.4,7.3 7.3,0 0,0 -1.209,4.005 4.284,4.284 0,0 0,0.756 2.569,6.21 6.21,0 0,0 1.889,1.738 10,10 0,0 0,2.493 1.057,17.7 17.7,0 0,0 2.569,0.53 8.581,8.581 0,0 1,0.756 -4.988,22.807 22.807,0 0,1 2.417,-3.626 33.208,33.208 0,0 0,2.569 -3.627,9.367 9.367,0 0,0 1.209,-4.987 12.35,12.35 0,0 0,-2.418 -7.707Q487.028,44.732 482.192,44.73Z"/>
	<path fill="#fff" d="M543.847,90.293a4.123,4.123 0,0 1,-2.115 0.528,2.148 2.148,0 0,1 -2.117,-1.284 5.829,5.829 0,0 1,-0.6 -2.493q0.3,-13.3 0.756,-26.37t0.453,-26.37q0,-2.721 -0.151,-5.818a19.928,19.928 0,0 0,-1.133 -5.818,10.911 10.911,0 0,0 -3.023,-4.533 8.475,8.475 0,0 0,-5.817 -1.814,9.148 9.148,0 0,0 -4.836,1.284 11.775,11.775 0,0 0,-3.552 3.325,15.544 15.544,0 0,0 -2.19,4.609 17.576,17.576 0,0 0,-0.756 4.987v1.208a9.4,9.4 0,0 1,1.737 -1.359,4.111 4.111,0 0,1 2.192,-0.605 2.155,2.155 0,0 1,1.738 0.831,4.465 4.465,0 0,1 0.906,2.041 20.409,20.409 0,0 1,0.3 2.493q0.074,1.286 0.075,2.04 0,3.174 -0.075,6.423t-0.227,6.421a19.711,19.711 0,0 0,-14.356 -6.648,10.6 10.6,0 0,0 -7.934,3.173 23.216,23.216 0,0 0,-4.911 7.707,42.771 42.771,0 0,0 -2.569,9.52 58.509,58.509 0,0 0,-0.756 8.614q0,3.932 0.454,9.52a49.8,49.8 0,0 0,2.04 10.73,23.171 23.171,0 0,0 4.835,8.764 11.089,11.089 0,0 0,8.689 3.627,14.818 14.818,0 0,0 8.161,-1.965 25.293,25.293 0,0 0,6.044 -5.893q1.057,1.36 1.965,2.8a17.15,17.15 0,0 0,1.964 2.569,9.778 9.778,0 0,0 2.418,1.889 7.091,7.091 0,0 0,3.476 0.756,10.663 10.663,0 0,0 8.161,-3.4 11.631,11.631 0,0 0,3.173 -8.235,20.25 20.25,0 0,0 -0.453,-4.232A17.634,17.634 0,0 0,543.847 90.293ZM526.016,76.541a37.587,37.587 0,0 1,-0.983 7.178,15.866 15.866,0 0,1 -2.72,5.969 6.337,6.337 0,0 1,-5.365 2.494,6.084 6.084,0 0,1 -4.382,-1.587 9.27,9.27 0,0 1,-2.418 -3.854,20.959 20.959,0 0,1 -0.982,-4.836q-0.227,-2.568 -0.226,-4.684t0.075,-5.743a36.847,36.847 0,0 1,0.831 -7.1,17.2 17.2,0 0,1 2.418,-5.969 5.449,5.449 0,0 1,4.836 -2.494,7.873 7.873,0 0,1 4.835,1.36 8.417,8.417 0,0 1,2.72 3.476,16.886 16.886,0 0,1 1.209,4.684 42.868,42.868 0,0 1,0.3 4.988Q526.162,72.839 526.016,76.541Z"/>
	<path fill="#fff" d="M594.162,80.243a18.858,18.858 0,0 0,-5.667 -5.44,33.132 33.132,0 0,0 -7.4,-3.4q-4.007,-1.282 -7.405,-2.569a20.686,20.686 0,0 1,-5.666 -3.1,5.875 5.875,0 0,1 -2.268,-4.836 5.2,5.2 0,0 1,1.512 -3.7,4.831 4.831,0 0,1 3.627,-1.587 8.062,8.062 0,0 1,5.439 1.587,23.6 23.6,0 0,1 3.249,3.476 28.952,28.952 0,0 0,3.1 3.475q1.66,1.587 5.137,1.587a6.86,6.86 0,0 0,4.232 -1.36,4.609 4.609,0 0,0 1.813,-3.929 12.668,12.668 0,0 0,-2.04 -7.254,17.027 17.027,0 0,0 -5.214,-4.986 25.024,25.024 0,0 0,-7.027 -2.947,30.217 30.217,0 0,0 -7.479,-0.983 24.433,24.433 0,0 0,-7.481 1.134,20.019 20.019,0 0,0 -6.271,3.249 16.014,16.014 0,0 0,-4.383 5.289,15.717 15.717,0 0,0 -1.662,7.4 16,16 0,0 0,1.965 8.387,17.114 17.114,0 0,0 5.062,5.365 28.506,28.506 0,0 0,6.8 3.4q3.7,1.284 7.179,2.417a41.763,41.763 0,0 1,6.12 2.494,7.853 7.853,0 0,1 3.7,3.627 9.581,9.581 0,0 1,-1.058 4.835q-1.059,1.813 -4.534,1.813a8.4,8.4 0,0 1,-3.929 -1.133q-2.118,-1.133 -4.533,-2.569a38.831,38.831 0,0 0,-5.214 -2.569,14.986 14.986,0 0,0 -5.667,-1.133 9.255,9.255 0,0 0,-6.573 2.645,8.508 8.508,0 0,0 -2.8,6.421 10.769,10.769 0,0 0,2.116 6.423,7.524 7.524,0 0,0 5.743,3.249q-0.306,-0.6 -0.6,-1.134a2.523,2.523 0,0 1,-0.3 -1.284,2.037 2.037,0 0,1 0.908,-1.813 3.725,3.725 0,0 1,2.115 -0.6,7.306 7.306,0 0,1 3.475,0.983q1.813,0.984 4.005,2.115a43.123,43.123 0,0 0,4.836 2.116,17.538 17.538,0 0,0 6.12,0.983 22.649,22.649 0,0 0,7.329 -1.209,18.507 18.507,0 0,0 6.121,-3.4 16.46,16.46 0,0 0,5.742 -12.769A15.282,15.282 0,0 0,594.162 80.243Z"/>
</svg>
