<svg xmlns="http://www.w3.org/2000/svg" 
     width="39.936" 
     height="32.973" 
     viewBox="0 0 39.936 32.973">
  <!-- Circle Path -->
  <path d="M7.613 4.29m-2.796 0a2.796 2.796 0 1 1 5.592 0 2.796 2.796 0 1 1-5.592 0" 
        fill="#60a69e"/>
  <!-- Main Body Path -->
  <path d="M39.514 29.747L32.477 18.4a4.754 4.754 0 0 1-3.284-1.529 2.712 2.712 0 0 0-4.229 0 4.665 4.665 0 0 1-6.927 0 2.7 2.7 0 0 0-4.221 0 4.692 4.692 0 0 1-3.462 1.54 4.981 4.981 0 0 1-.606-.045c-.127-.016-.246-.037-.364-.062-.089-.018-.176-.038-.26-.061-.1-.028-.2-.057-.3-.091a2.951 2.951 0 0 1-.279-.114c-.071-.031-.144-.06-.211-.094a4.588 4.588 0 0 1-.437-.253L.42 29.747A2 2 0 0 0 2.006 32.973H37.933a1.992 1.992 0 0 0 1.966-1.627 1.943 1.943 0 0 0 .031-.539 1.975 1.975 0 0 0-.416-1.06Z" 
        fill="#60a69e"/>
  <!-- Inner Path -->
  <path d="M11.115 16.296L19.967 2.02 27.316 13.871a4.767 4.767 0 0 1 3.227 1.525c.055.05.105.092.158.139L21.548.775a2 2 0 0 0-3.162 0L8.957 15.981a2.294 2.294 0 0 0 1.4.43 2.512 2.512 0 0 0 .758-.115Z" 
        fill="#60a69e"/>
</svg>
