<svg xmlns="http://www.w3.org/2000/svg" 
     xmlns:xlink="http://www.w3.org/1999/xlink" 
     viewBox="0 0 931 1280" 
     width="21.8203" 
     height="30">
  <path fill="#60a69e" 
        stroke="none" 
        d="M918.6,2.1c-2.8,2.2 -67.8,92.8 -143.8,200.4 -170.2,241.1 -287.9,414.4 -351.5,517.5 -9.1,14.8 -26.3,44.2 -26.3,45 0,0.4 4.8,2.4 10.8,4.6 5.9,2.1 19,8 29.2,13.1 26.7,13.4 43.3,24.1 68.8,44.6 6.8,5.4 12.5,9.7 12.6,9.5 0.9,-1 10.7,-17.7 19.3,-32.8 65.6,-114.6 201.3,-387.4 370,-744 12.4,-26.1 22.7,-49.2 23,-51.2 0.4,-3 0.1,-4.1 -2,-6.2 -3.2,-3.1 -6.5,-3.3 -10.1,-0.5z"/>
  <path fill="#60a69e" 
        stroke="none" 
        d="M379.6,799.8c-15.4,36.8 -30.9,71.3 -62.3,138.7 -26.4,56.6 -41,89.3 -40.1,90 0.2,0.1 3.2,0.8 6.8,1.4 19.5,3.8 43.1,17.8 56.1,33.5 2.8,3.3 5.5,6.2 6,6.4 1.2,0.5 19.9,-24.2 58,-76.8 40,-55.2 64.2,-87.8 83.9,-113 17.6,-22.5 17.1,-21.6 14.4,-23.8 -1.2,-0.9 -6.6,-5.3 -12,-9.8 -30.4,-24.8 -65.2,-44.9 -96.3,-55.5 -4.7,-1.6 -8.7,-2.9 -9,-2.9 -0.3,-0 -2.8,5.3 -5.5,11.8z"/>
  <path fill="#60a69e" 
        stroke="none" 
        d="M235.8,1040.5c-27,4.4 -50.9,19 -68,41.5 -6.2,8.1 -14,24.1 -16.7,34 -9.2,34 -13.8,47.6 -22,64.4 -7.7,15.7 -16.4,27.9 -27.6,39.2 -21,21.1 -46,33.6 -85,42.3 -9.9,2.3 -13.4,3.5 -14.7,5.1 -2.6,3.2 -2.3,7.6 0.8,10.7l2.6,2.6 48.2,-0.6c26.4,-0.4 56,-1.1 65.6,-1.7 111.7,-6.3 175.8,-25.6 211.8,-63.5 17.7,-18.6 25.9,-38.4 26.9,-65 1.1,-28.8 -6.5,-51.1 -24.8,-73.3 -12.6,-15.3 -34.2,-28.7 -54.4,-33.8 -12.7,-3.1 -30.3,-4 -42.7,-1.9z"/>
</svg>
