<svg xmlns="http://www.w3.org/2000/svg" 
     width="32.005" 
     height="38.812" 
     viewBox="0 0 32.005 38.812">
  <!-- Main Path -->
  <path d="M22.9 4.891H3a2.964 2.964 0 0 0-3 2.908L0 38.812l13.547-7.865 12.348 7.865L25.895 7.799A2.964 2.964 0 0 0 22.9 4.891Z" 
        fill="#cccccc"/>
  <!-- Inner Path -->
  <path d="M32.005 35.327l-13.46-8.855-14.549 8.726L3.996 4.367A4.369 4.369 0 0 1 8.358 0h19.285a4.369 4.369 0 0 1 4.362 4.367ZM8.358 2.912a1.457 1.457 0 0 0-1.454 1.456L6.904 30.061l11.714-7.026 10.479 6.9L29.097 4.367a1.457 1.457 0 0 0-1.454-1.456Z" 
        fill="#cccccc"/>
</svg>
