<svg xmlns="http://www.w3.org/2000/svg" 
     width="27.173" 
     height="33.505" 
     viewBox="0 0 27.173 33.505">
  <path d="M5.093 33.505a1.28 1.28 0 0 1-1.279-1.279L3.814 2.291a1.279 1.279 0 0 1 2.558 0L6.372 32.226a1.279 1.279 0 0 1-1.279 1.279Z" 
        fill="#cccccc"/>
  <path d="M9.257 2.558H1.279a1.279 1.279 0 0 1 0-2.558h7.978a1.279 1.279 0 0 1 0 2.558Z" 
        fill="#cccccc"/>
  <path d="M9.257 33.505H1.279a1.279 1.279 0 1 1 0-2.558h7.978a1.279 1.279 0 0 1 0 2.558Z" 
        fill="#cccccc"/>
  <path d="M5.271 5.844h21.866l0.036 7.323-1.051-0.001q-0.514-3.93-2.943-5.317a9.068 9.068 0 0 0-4.078-0.835L19.101 26.144a3.694 3.694 0 0 0 0.7 2.661 4.5 4.5 0 0 0 2.917 0.657v0.922L9.775 30.384v-0.922a4.264 4.264 0 0 0 2.827-0.665 3.694 3.694 0 0 0 0.7-2.652L13.302 7.019a9.3 9.3 0 0 0-4.078 0.835q-2.606 1.424-2.944 5.317l-0.043 0.004Z" 
        fill="#cccccc"/>
</svg>
